<svg xmlns="http://www.w3.org/2000/svg" viewBox="0 0 24 24" class="social-icon">
    <path fill="white" d="M22.46 6c-.77.35-1.6.58-2.46.69a4.29 4.29 0 0 0 1.88-2.36 8.6 8.6 0 0 1-2.72 1.04 4.28 4.28 0 0 0-7.29 3.91 12.16 12.16 0 0 1-8.83-4.48 4.27 4.27 0 0 0 1.33 5.72c-.63-.02-1.23-.19-1.75-.47v.05a4.27 4.27 0 0 0 3.42 4.18 4.3 4.3 0 0 1-1.94.07 4.28 4.28 0 0 0 4 2.97A8.58 8.58 0 0 1 2 18.49 12.1 12.1 0 0 0 8.19 20c7.55 0 11.67-6.26 11.67-11.68 0-.18 0-.35-.01-.53a8.32 8.32 0 0 0 2.04-2.11z" />
</svg>

